# xmcd CD database file
#
# Track frame offsets:
#	150
#	20039
#	46782
#	64450
#	92179
#	119361
#	149337
#	175023
#	196820
#	219398
#
# Disc length: 3408 seconds
#
# Revision: 0
# Processed by: cddbd v1.5.2PL0 Copyright (c) Steve Scherf et al.
# Submitted via: CDex 1.51
#
DISCID=8f0d4e0a
DTITLE=deuJazz - Kauf dir einen bunten Luftballon
DYEAR=2006
DGENRE=Jazz
TTITLE0=Das mache ich alles nur mit einem netten Lächeln
TTITLE1=Er heißt Waldemar
TTITLE2=Mein Herz schlägt dubadubadu
TTITLE3=Warum soll meine Frau kein Verhältnis haben
TTITLE4=Bei mir bist Du schön
TTITLE5=An dem kleinen Radioapparat
TTITLE6=Kann den Liebe Sünde sein
TTITLE7=Merci, mon ami, es war wunderschön
TTITLE8=Kauf dir einen bunten Luftballon
TTITLE9=Lalelu
EXTD=YEAR: 2006
EXTT0=
EXTT1=
EXTT2=
EXTT3=
EXTT4=
EXTT5=
EXTT6=
EXTT7=
EXTT8=
EXTT9=
PLAYORDER=
